PathFileType	4	(X/Y/Z)	c:/Users/goper/Files/vsCode/490R/osim_files/C12/C12_Static.trc
DataRate	CameraRate	NumFrames	NumMarkers	Units                	OrigDataRate	OrigDataStartFrame	OrigNumFrames
120.00	120.00	4	36	mm	120.0	305	812
                Frame#	Time	LPSIS			LASIS			LTH1			LTH2			LTH3			LTH4			LLFE			LMFE			LSH1			LSH2			LSH3			LSH4			LLMAL			LMMAL			LCAL			LMTP5			LTOE			LMTP1			RPSIS			RASIS			RTH1			RTH2			RTH3			RTH4			RLFE			RMFE			RSH1			RSH2			RSH3			RSH4			RLMAL			RMMAL			RCAL			RMTP1			RTOE			RMTP5		
		X1	Y1	Z1	X2	Y2	Z2	X3	Y3	Z3	X4	Y4	Z4	X5	Y5	Z5	X6	Y6	Z6	X7	Y7	Z7	X8	Y8	Z8	X9	Y9	Z9	X10	Y10	Z10	X11	Y11	Z11	X12	Y12	Z12	X13	Y13	Z13	X14	Y14	Z14	X15	Y15	Z15	X16	Y16	Z16	X17	Y17	Z17	X18	Y18	Z18	X19	Y19	Z19	X20	Y20	Z20	X21	Y21	Z21	X22	Y22	Z22	X23	Y23	Z23	X24	Y24	Z24	X25	Y25	Z25	X26	Y26	Z26	X27	Y27	Z27	X28	Y28	Z28	X29	Y29	Z29	X30	Y30	Z30	X31	Y31	Z31	X32	Y32	Z32	X33	Y33	Z33	X34	Y34	Z34	X35	Y35	Z35	X36	Y36	Z36

305	2.53333	-343.69254	1064.00745	434.38397	-165.63730	1031.27441	368.73718	-295.80496	763.03546	304.03223	-294.95392	718.45740	302.06107	-234.41444	760.96478	293.35812	-241.75795	716.23236	292.94388	-283.16284	535.09570	320.79224	-270.23795	513.42712	444.26349	-349.96536	446.69138	296.94022	-346.98425	400.60400	283.12851	-289.36874	445.63971	295.35550	-295.22934	399.43250	285.38199	-311.76215	103.14436	285.32440	-290.11868	103.24776	360.83530	-366.79694	72.72472	326.44687	-180.85417	39.97915	239.25978	-121.91968	70.08824	301.05066	-146.87442	41.66300	346.21869	-351.57507	1062.03076	544.58862	-166.88672	1024.88477	630.29828	-285.02933	763.17169	700.12860	-283.38379	717.43842	695.65906	-221.87500	758.19305	698.83551	-230.96521	711.13300	695.98511	-299.36331	536.70581	673.17120	-288.01447	520.61627	540.50049	-369.18887	442.75598	697.88531	-366.07721	400.58081	709.36542	-306.47800	439.05823	698.57104	-314.36606	398.38623	711.37262	-331.11249	102.61558	701.58704	-306.96344	113.08944	621.95288	-395.54480	63.87138	658.22614	-178.06725	47.26043	632.54810	-140.17490	67.03079	668.52271	-178.29716	40.94836	739.63300
306	2.54167	-343.68256	1063.98560	434.44360	-165.67052	1031.22449	368.72653	-295.80124	763.03003	304.04248	-294.93115	718.42743	302.06073	-234.46268	760.92261	293.36188	-241.77858	716.20343	292.94702	-283.16565	535.08038	320.79919	-270.25302	513.38440	444.25235	-349.98895	446.66983	296.94821	-346.98648	400.55518	283.15125	-289.35904	445.63052	295.37708	-295.26862	399.39429	285.37775	-311.76349	103.10759	285.35196	-290.09341	103.21306	360.87631	-366.83987	72.62967	326.54962	-180.84634	39.92822	239.29039	-121.91353	70.01884	301.04968	-146.88849	41.59226	346.22702	-351.55353	1062.02527	544.65521	-166.94283	1024.79443	630.30804	-284.99832	763.13110	700.20575	-283.36078	717.39899	695.72400	-222.23160	757.95306	698.85187	-231.01199	711.05078	696.02991	-299.32855	536.67499	673.21277	-288.02078	520.61084	540.51300	-369.17181	442.71796	697.94934	-366.02591	400.55640	709.46228	-306.49326	438.96191	698.60992	-314.37509	398.34744	711.41504	-331.08344	102.56461	701.63171	-306.98096	113.05972	621.93945	-395.52280	63.78811	658.29230	-178.09935	47.19052	632.56970	-140.17500	66.96498	668.53473	-178.27832	40.90011	739.64404
307	2.55000	-343.75082	1064.02380	434.46121	-165.70033	1031.22144	368.71613	-295.82425	763.04413	304.04672	-294.95816	718.43060	302.06412	-234.47974	760.94556	293.35223	-241.78813	716.22699	292.93149	-283.12894	535.10168	320.77869	-270.26712	513.39203	444.25757	-349.98035	446.68533	296.93250	-347.01047	400.55170	283.15076	-289.37198	445.64490	295.34055	-295.26578	399.41031	285.35684	-311.75806	103.12612	285.34067	-290.08600	103.22822	360.88171	-366.75128	72.55429	326.55533	-180.86475	39.92834	239.31117	-121.90976	70.01868	301.05658	-146.88547	41.60022	346.22165	-351.65128	1062.07458	544.67554	-167.58612	1024.65479	630.25330	-285.00192	763.15747	700.23999	-283.37241	717.42029	695.75891	-222.25365	757.92639	698.84418	-231.03769	711.02899	696.03802	-299.30844	536.67981	673.24127	-288.02701	520.63678	540.49792	-369.15359	442.74222	697.98285	-366.01450	400.57956	709.50049	-306.53833	438.95148	698.61951	-314.38461	398.35141	711.42255	-331.07010	102.58025	701.63940	-306.95935	113.09756	621.93805	-395.53864	63.78521	658.31085	-178.09988	47.18836	632.56677	-140.19560	66.95181	668.52679	-178.29460	40.88739	739.64154
308	2.55833	-343.79102	1064.10791	434.42950	-165.71530	1031.28345	368.68701	-295.81091	763.09570	304.03040	-294.98123	718.51263	302.04111	-234.48296	760.98663	293.34973	-241.78978	716.26886	292.92014	-283.12424	535.15405	320.74915	-270.28583	513.44049	444.25186	-349.95505	446.74652	296.89987	-346.96765	400.62030	283.09946	-289.36169	445.70752	295.32770	-295.24927	399.47220	285.35394	-311.73386	103.17603	285.30978	-290.10104	103.30241	360.84491	-366.74628	72.73344	326.43292	-180.84528	40.02532	239.26012	-121.91438	70.08825	301.03314	-146.88661	41.65423	346.21594	-351.71185	1062.14453	544.64703	-167.60396	1024.74194	630.21417	-285.04657	763.24872	700.20325	-283.40390	717.52173	695.73657	-221.96434	758.19830	698.82910	-231.01703	711.13940	696.01013	-299.33310	536.75848	673.19019	-288.01782	520.69220	540.48651	-369.17108	442.81680	697.95117	-366.06265	400.67010	709.44012	-306.52621	439.07504	698.60944	-314.37515	398.43481	711.39288	-331.06082	102.67487	701.59326	-306.92899	113.14240	621.92731	-395.54987	63.88612	658.23767	-178.07645	47.26847	632.53528	-140.16769	67.02396	668.50891	-178.26279	40.96820	739.59546
